<?xml version="1.0" encoding="UTF-8"?>
<svg version="1.1" xmlns="http://www.w3.org/2000/svg" width="2816" height="1536">
<path d="M0 0 C1.51430164 -0.00195586 3.02860278 -0.00434582 4.54290313 -0.00712797 C8.70095119 -0.01350181 12.85897987 -0.0136917 17.01703189 -0.01285056 C21.5421338 -0.01302058 26.06722888 -0.01893252 30.59232736 -0.02409142 C39.56599785 -0.03340456 48.53966342 -0.0373373 57.51333814 -0.03961039 C68.26286453 -0.04257581 79.01238439 -0.05127519 89.76190734 -0.06002467 C115.7427961 -0.08085594 141.72368599 -0.0913367 167.70458115 -0.10015428 C179.99813916 -0.10436257 192.29169669 -0.10958431 204.58525429 -0.11483881 C246.67685561 -0.13272764 288.76845708 -0.14772326 330.86006165 -0.155159 C333.50193072 -0.15563375 336.14379979 -0.15610964 338.78566886 -0.15658666 C340.09578089 -0.15682303 341.40589291 -0.15705941 342.75570529 -0.15730295 C349.39323453 -0.15850413 356.03076377 -0.15971959 362.668293 -0.16094494 C363.98552322 -0.16118509 365.30275344 -0.16142524 366.65989973 -0.16167267 C409.36340966 -0.16956482 452.06688867 -0.19299563 494.77038684 -0.22550088 C539.93098981 -0.25981361 585.09157652 -0.27951145 630.25219274 -0.28280324 C635.21166564 -0.28322077 640.17113853 -0.28370033 645.13061142 -0.28422642 C646.96232122 -0.28441121 646.96232122 -0.28441121 648.83103525 -0.28459973 C668.4660908 -0.28692989 688.10111403 -0.30257951 707.73615807 -0.32306826 C727.48010496 -0.34334348 747.22401312 -0.34879551 766.96796849 -0.33929763 C778.69002409 -0.33408939 790.41195052 -0.33992824 802.13398748 -0.3618323 C809.97530268 -0.37537438 817.81652932 -0.37423336 825.65784547 -0.36143034 C830.11829965 -0.35455643 834.5785075 -0.35378556 839.03893933 -0.37099043 C864.6453528 -0.46340644 887.60087279 0.6999998 911.00960159 12.13422108 C911.94304398 12.58136463 911.94304398 12.58136463 912.89534378 13.03754139 C942.18665646 27.23693119 964.5363509 54.24988883 975.28694534 84.75922108 C979.4797903 98.68263074 981.46457427 112.23491151 981.38991833 126.73910999 C981.39336133 128.24687433 981.39811446 129.75463613 981.40403929 131.26239276 C981.41645062 135.37433284 981.41044377 139.4860632 981.40120562 143.59800383 C981.39445944 148.08340582 981.40518006 152.56877326 981.41360146 157.05416775 C981.42594454 164.90514214 981.427191 172.75605674 981.42105103 180.60703754 C981.411945 192.28189362 981.42000396 203.95669458 981.43134227 215.63154644 C981.45099548 236.48514692 981.45335923 257.33872253 981.44814707 278.19233006 C981.44358808 296.44178296 981.44419134 314.69122602 981.44998741 332.9406786 C981.45074428 335.38959682 981.45150026 337.83851504 981.45225536 340.28743327 C981.45340056 343.97781046 981.45455044 347.66818765 981.4557146 351.35856483 C981.46641745 385.66170385 981.47114696 419.9648396 981.46324444 454.26797962 C981.46279868 456.20706838 981.46279868 456.20706838 981.46234391 458.18533064 C981.45989503 468.68288597 981.45728342 479.18044126 981.45465978 489.67799655 C981.44455576 530.63151925 981.45291658 571.58500096 981.47615433 612.53851795 C981.50222625 658.56123824 981.51507521 704.58393385 981.50796658 750.6066618 C981.50725052 755.51369571 981.50657613 760.42072963 981.50592613 765.32776356 C981.50575632 766.5359806 981.50558651 767.74419765 981.50541156 768.98902734 C981.50310875 787.22601289 981.51108463 805.46297553 981.52421761 823.69995594 C981.53912539 844.43837135 981.53997647 865.17673305 981.52214669 885.9151473 C981.51258137 897.51851414 981.51402342 909.12175569 981.53138138 920.72511417 C981.54187054 928.47945269 981.53777089 936.23369577 981.52190135 943.98802488 C981.51327003 948.40361063 981.51084374 952.81895088 981.52617066 957.23452401 C981.54001048 961.25975233 981.53510039 965.28452637 981.51588548 969.30972865 C981.51218169 970.74880997 981.51501605 972.18792881 981.52559856 973.62697598 C981.59736042 984.1170271 979.91802232 993.12332015 977.00960159 1003.13422108 C976.8245867 1003.78166678 976.63957182 1004.42911248 976.44895042 1005.09617774 C967.45714597 1036.44927541 945.22361887 1063.90469004 917.00960159 1080.13422108 C897.63539591 1090.58304482 878.97515745 1096.46314709 856.84257412 1096.38590336 C855.32127434 1096.38799277 853.79997556 1096.3909576 852.27867898 1096.39471209 C848.10589311 1096.40248084 843.93320012 1096.39785045 839.7604158 1096.39115619 C835.21774451 1096.38607513 830.67508727 1096.39260566 826.13241798 1096.39764285 C818.17319218 1096.40486333 810.21399351 1096.40464886 802.25476646 1096.39954853 C790.41896778 1096.39198468 778.58319199 1096.39585051 766.74739346 1096.40196515 C745.60802303 1096.41249957 724.46866468 1096.41158259 703.32929309 1096.40580732 C684.82807782 1096.40077758 666.32686698 1096.39946216 647.82565117 1096.40185261 C646.59874946 1096.40200538 645.37184775 1096.40215815 644.10776719 1096.40231555 C639.12742675 1096.40293822 634.14708631 1096.40357502 629.16674588 1096.40423508 C583.10460275 1096.41026706 537.04246703 1096.40511698 490.98032506 1096.39450209 C448.79647614 1096.38479131 406.61263991 1096.38523876 364.42879105 1096.39496326 C317.78975814 1096.40567315 271.15073203 1096.40991869 224.51169807 1096.40373874 C219.53946515 1096.4030973 214.56723223 1096.40247162 209.59499931 1096.40185261 C208.37070026 1096.40169445 207.14640121 1096.4015363 205.88500219 1096.40137335 C187.39746229 1096.39909849 168.9099273 1096.40175885 150.42238808 1096.40681171 C129.39871044 1096.41252907 108.37504679 1096.41110312 87.35137089 1096.40025023 C75.58545301 1096.39437673 63.81956541 1096.39399564 52.05364831 1096.40154258 C44.19333623 1096.40602824 36.33304842 1096.40323455 28.47273994 1096.39453304 C23.99494904 1096.38977776 19.51721827 1096.3881441 15.03942927 1096.395345 C10.96009714 1096.40183815 6.8808781 1096.39901414 2.8015541 1096.38898368 C1.34058903 1096.38698126 -0.12038555 1096.38826992 -1.581343 1096.39339556 C-13.7692443 1096.4330969 -25.94780329 1095.69407887 -37.55289841 1091.69672108 C-38.29048386 1091.44503162 -39.02806931 1091.19334217 -39.78800583 1090.93402576 C-54.87368641 1085.50777075 -68.85241477 1077.58684654 -80.99039841 1067.13422108 C-81.87856247 1066.3839867 -82.76672653 1065.63375233 -83.68180466 1064.86078358 C-102.8340996 1048.19390096 -116.15594924 1026.54832028 -122.99039841 1002.13422108 C-123.17109741 1001.49732563 -123.35179642 1000.86043018 -123.53797115 1000.20423487 C-128.05650269 983.50292349 -127.55810941 966.46767439 -127.49806726 949.32113038 C-127.48691808 944.85548654 -127.49920727 940.38989268 -127.50837475 935.92425275 C-127.52122729 928.11415876 -127.51935729 920.30417849 -127.50759506 912.49408436 C-127.49015229 900.88010241 -127.49573403 889.26620923 -127.50576197 877.65222257 C-127.52292486 856.9064835 -127.51743182 836.1607974 -127.50240479 815.41505944 C-127.48934103 797.26236257 -127.48415936 779.10968405 -127.48672295 760.95698261 C-127.48688336 759.75178501 -127.48704378 758.54658741 -127.48720905 757.30486866 C-127.48787266 752.41233675 -127.48857508 747.51980485 -127.48933439 742.62727296 C-127.49635415 696.7579086 -127.48088085 650.88857654 -127.45471094 605.0192204 C-127.431591 564.27987455 -127.42621034 523.5405642 -127.43644333 482.80121326 C-127.43904541 472.36618393 -127.44163044 461.9311546 -127.44404125 451.49612522 C-127.4443387 450.21138932 -127.44463615 448.92665343 -127.44494261 447.60298614 C-127.452559 413.54297843 -127.4461441 379.48297361 -127.43534523 345.4229672 C-127.43419745 341.75777298 -127.43305427 338.09257877 -127.43191841 334.42738455 C-127.43116316 331.996081 -127.43039752 329.56477746 -127.4296214 327.13347392 C-127.42396595 308.99079339 -127.42529104 290.84812204 -127.42984962 272.70544147 C-127.43495921 252.07692041 -127.42909635 231.44843372 -127.40895533 210.81992123 C-127.39797644 199.27876659 -127.39516896 187.73767952 -127.40424386 176.19652284 C-127.40946967 168.48379154 -127.40374896 160.77111799 -127.38919051 153.05839881 C-127.38119956 148.66668137 -127.37784208 144.27510034 -127.38776308 139.88338372 C-127.39670392 135.87989113 -127.39159942 131.87665969 -127.37578364 127.8731906 C-127.37249783 126.44196462 -127.37410415 125.01071574 -127.38151212 123.57950516 C-127.54550634 89.33718466 -112.55449476 58.98819326 -88.99039841 34.69672108 C-73.51160119 19.2682391 -54.11298128 8.59695803 -32.99039841 3.13422108 C-32.25821091 2.92281483 -31.52602341 2.71140858 -30.77164841 2.49359608 C-20.73589447 -0.29411335 -10.325921 -0.01167408 0 0 Z M-41.99039841 39.13422108 C-42.92239059 39.58668201 -43.85438278 40.03914295 -44.81461716 40.50531483 C-51.55281997 43.97309285 -57.23940268 48.22758035 -62.99039841 53.13422108 C-64.09834763 54.00627186 -64.09834763 54.00627186 -65.22867966 54.89593983 C-83.25331436 69.65501016 -93.92239339 93.41195917 -96.99039841 116.13422108 C-97.81897154 126.94652158 -97.67020176 137.80755289 -97.62033346 148.64410612 C-97.60569856 153.04746516 -97.62042134 157.45074991 -97.63121843 161.85410666 C-97.64612638 169.55333362 -97.64265625 177.2523775 -97.62680054 184.95160007 C-97.60328762 196.40073891 -97.60860924 207.84974102 -97.61950944 219.29889235 C-97.63805929 239.75078553 -97.62841461 260.20259136 -97.6070318 280.65447739 C-97.58845439 298.55006287 -97.58005477 316.44561905 -97.58160019 334.34121418 C-97.58169187 335.52956176 -97.58178354 336.71790934 -97.581878 337.94226745 C-97.58227117 342.76645343 -97.5827208 347.59063941 -97.58324938 352.41482538 C-97.58811699 397.63896131 -97.56548071 442.86304527 -97.52929316 488.08716505 C-97.49729325 528.24934552 -97.48525127 568.41148162 -97.49137497 608.5736742 C-97.49176182 611.15315617 -97.49214827 613.73263814 -97.49253434 616.31212011 C-97.49272569 617.58738001 -97.49291703 618.86263991 -97.49311418 620.17654405 C-97.49406854 626.59630098 -97.49498291 633.01605792 -97.49585342 639.43581486 C-97.49602722 640.70239106 -97.49620101 641.96896727 -97.49638007 643.27392457 C-97.50073662 676.85610319 -97.4907182 710.43827703 -97.47601557 744.02045226 C-97.47549543 745.21526923 -97.47497528 746.4100862 -97.47443938 747.64110975 C-97.47392004 748.83372142 -97.47340069 750.02633309 -97.47286561 751.2550845 C-97.47234787 752.44548662 -97.47183013 753.63588874 -97.4712967 754.86236365 C-97.47024862 757.25966542 -97.4691884 759.65696719 -97.46811598 762.05426896 C-97.46074026 778.75522684 -97.45864627 795.45617794 -97.46010999 812.15713725 C-97.46195679 833.67827506 -97.45386937 855.19937109 -97.42846853 876.72049525 C-97.41531982 888.09703105 -97.41028323 899.47350018 -97.41710707 910.85004193 C-97.4208256 918.45428729 -97.41358303 926.05847195 -97.39751468 933.6627011 C-97.3886627 937.99161606 -97.38441191 942.32039417 -97.39344186 946.64931193 C-97.40157087 950.59698176 -97.39562384 954.54438468 -97.37902497 958.4920257 C-97.37545411 959.90191781 -97.37674755 961.31183416 -97.38386412 962.72171283 C-97.41923766 970.32293274 -96.92973017 977.64391632 -95.63442278 985.12416434 C-95.5155775 985.81146116 -95.39673222 986.49875798 -95.27428557 987.20688197 C-93.882355 994.58687011 -91.17833457 1001.35806977 -87.99039841 1008.13422108 C-87.55533981 1009.07394764 -87.55533981 1009.07394764 -87.11149216 1010.03265858 C-82.4086018 1020.00848661 -76.45999656 1028.05778703 -68.99039841 1036.13422108 C-68.33426559 1036.87156483 -67.67813278 1037.60890858 -67.00211716 1038.36859608 C-51.50106855 1054.96500787 -27.71059849 1066.30825802 -4.95739846 1067.26125558 C-3.87446457 1067.2622183 -2.79153067 1067.26318102 -1.67578059 1067.26417291 C-0.41722531 1067.26770133 0.84132997 1067.27122975 2.13802329 1067.27486509 C3.52973653 1067.27374404 4.92144971 1067.27253076 6.3131628 1067.27123547 C7.80153985 1067.27349265 9.28991629 1067.27618439 10.77829185 1067.2792713 C14.882986 1067.2865041 18.98766185 1067.28750058 23.09236151 1067.28749408 C27.55263079 1067.2885636 32.01289195 1067.29535443 36.47315675 1067.30140078 C45.32637161 1067.31247565 54.17958251 1067.31812484 63.03280308 1067.32210966 C73.63479343 1067.32711873 84.23677609 1067.33784629 94.8387619 1067.34859139 C120.46715099 1067.37422334 146.09554307 1067.38925774 171.7239413 1067.40210186 C180.21290007 1067.40635656 188.70185862 1067.41092229 197.19081712 1067.41568518 C242.32787747 1067.4409462 287.46493818 1067.46299415 332.60200405 1067.47541332 C343.06037968 1067.47833465 353.51875529 1067.48130217 363.97713089 1067.48431873 C365.27645198 1067.48468964 366.57577307 1067.48506055 367.91446752 1067.4854427 C410.03516172 1067.49759639 452.15581411 1067.5285373 494.27648867 1067.57024026 C537.57954202 1067.61303566 580.8825733 1067.63965535 624.18564838 1067.64488804 C630.30305066 1067.64562847 636.4204529 1067.64653916 642.53785515 1067.64754581 C644.34377592 1067.64783174 644.34377592 1067.64783174 646.18617994 1067.64812343 C665.55426512 1067.6516357 684.92229793 1067.67192762 704.29036388 1067.69834245 C723.76366191 1067.72450004 743.23689947 1067.732209 762.71021255 1067.72124116 C774.27516126 1067.71526911 785.83990471 1067.72315117 797.40482232 1067.751072 C805.13772374 1067.76835746 812.8704856 1067.76734662 820.60339009 1067.75170431 C825.00449809 1067.74331497 829.40521515 1067.7426302 833.80628648 1067.76431577 C858.81522143 1067.95900695 858.81522143 1067.95900695 883.00960159 1062.13422108 C884.76970567 1061.48897214 884.76970567 1061.48897214 886.5653674 1060.83068788 C897.58716629 1056.58566074 907.06290299 1050.80281988 916.00960159 1043.13422108 C917.16975784 1042.17515858 917.16975784 1042.17515858 918.35335159 1041.19672108 C937.3041918 1025.10148693 947.43893874 1002.38903255 951.00960159 978.13422108 C951.09692648 976.05058264 951.13624914 973.96458817 951.13725209 971.87912089 C951.14026806 970.63387488 951.14328403 969.38862887 951.14639139 968.10564813 C951.14469256 966.72898542 951.14290183 965.35232281 951.14102936 963.97566032 C951.14267962 962.50312723 951.14476618 961.03059457 951.14724946 959.55806264 C951.15281787 955.49738486 951.15214337 951.43672817 951.15047187 947.37604779 C951.14974128 942.96355562 951.15476253 938.55106942 951.15904689 934.13857979 C951.16663116 925.38046825 951.16882017 916.62236281 951.16937594 907.86424834 C951.17028917 897.37628095 951.17695549 886.88831922 951.18372277 876.40035426 C951.19978971 851.04930381 951.20568689 825.69825396 951.21047152 800.34719934 C951.21280682 788.3558717 951.21640941 776.36454455 951.22016689 764.37321729 C951.23300316 723.33084016 951.24372217 682.2884633 951.24716949 641.24608421 C951.24739113 638.66921882 951.24761291 636.09235342 951.24783485 633.51548802 C951.24805549 630.93237219 951.24827597 628.34925636 951.24849629 625.76614052 C951.24893885 620.5839024 951.24938596 615.40166428 951.24983597 610.21942616 C951.25000005 608.29208261 951.25000005 608.29208261 951.25016746 606.32580283 C951.25379816 564.66218007 951.26971832 522.9985747 951.29302633 481.3349586 C951.31762005 437.29261606 951.33134213 393.25028346 951.33253741 349.20793384 C951.33270887 344.37350205 951.3329243 339.53907027 951.33317184 334.70463848 C951.33322761 333.51425311 951.33328338 332.32386775 951.33334084 331.0974101 C951.33449171 311.93683347 951.34551676 292.77627469 951.3600589 273.61570409 C951.37442237 254.3575639 951.37766173 235.0994466 951.36961892 215.84130252 C951.36516193 204.39998362 951.36902612 192.95873858 951.38485743 181.51742939 C951.39460767 173.87203579 951.39342872 166.22669395 951.3834212 158.58130083 C951.37802953 154.22696776 951.37731795 149.87277653 951.38992992 145.51845521 C951.40132839 141.54989359 951.39867973 137.58158825 951.38526285 133.6130352 C951.38284579 132.19329453 951.3853523 130.77353371 951.39365932 129.35381528 C951.54966736 100.79214962 940.65263433 76.44969006 921.07210159 55.88422108 C901.27934188 36.8259583 875.62384722 29.79283521 848.77944279 29.87695217 C847.27578186 29.87425333 845.77212229 29.87068243 844.26846525 29.8663277 C840.15395522 29.85692565 836.03953438 29.85985207 831.92502014 29.86488325 C827.4419787 29.86816291 822.95895581 29.85985653 818.47592038 29.85306489 C810.62438008 29.84277588 802.77286443 29.83991919 794.92131805 29.84197712 C783.24545711 29.84502993 771.56962341 29.83669695 759.89376776 29.82622787 C737.82626678 29.80689376 715.75877509 29.80125988 693.69126663 29.80011375 C676.64939376 29.79919443 659.60752453 29.79507652 642.56565285 29.7887125 C637.65898472 29.7869174 632.7523166 29.78513777 627.84564847 29.78336275 C626.62581613 29.78292065 625.40598378 29.78247855 624.14918683 29.78202306 C589.84141208 29.76971608 555.5336386 29.76182179 521.22586155 29.76270962 C519.9325881 29.76274078 518.63931465 29.76277193 517.3068511 29.76280403 C510.752098 29.76297025 504.19734491 29.76316833 497.64259181 29.76337345 C496.34080863 29.76341334 495.03902546 29.76345323 493.6977943 29.76349433 C491.06527239 29.7635752 488.43275047 29.7636588 485.80022855 29.76374511 C444.84046435 29.76497068 403.88073327 29.74995575 362.92097855 29.72259998 C316.8964317 29.69187422 270.87190662 29.67466776 224.84734887 29.67652643 C219.93910897 29.67667569 215.03086907 29.6767731 210.12262917 29.67683506 C208.30984661 29.67687002 208.30984661 29.67687002 206.46044219 29.67690569 C187.01909884 29.67696722 167.57778426 29.66420001 148.13644946 29.64697053 C128.59569262 29.63001117 109.05497784 29.62804264 89.51421771 29.64118917 C77.90906242 29.64857605 66.30403494 29.64492808 54.6988932 29.62530449 C46.94070788 29.6132955 39.18261502 29.61590583 31.42443391 29.63024549 C27.00823484 29.6380006 22.59228291 29.63958311 18.17610136 29.62333079 C-2.93479724 29.55071955 -22.58746774 29.61318357 -41.99039841 39.13422108 Z " fill="#000000" transform="translate(980.9903984069824,221.86577892303467)"/>
<path d="M0 0 C1.06553101 -0.0010675 2.13106201 -0.00213501 3.22888184 -0.00323486 C20.33814028 0.02150157 36.31538202 1.11673066 52.9375 5.4375 C53.82034668 5.65680176 54.70319336 5.87610352 55.61279297 6.10205078 C108.07970012 19.40562553 154.77120316 51.94118517 187.9375 94.4375 C188.82746613 95.50512415 189.72226885 96.56872946 190.62109375 97.62890625 C191.07935547 98.1698291 191.53761719 98.71075195 192.00976562 99.26806641 C193.29615063 100.78219124 194.58358796 102.29542184 195.87109375 103.80859375 C199.09849577 107.91453243 200.55041497 110.94862335 200.36328125 116.31640625 C199.51835626 120.52552799 196.69858068 123.27818653 193.9375 126.4375 C193.1021875 127.44167969 192.266875 128.44585938 191.40625 129.48046875 C185.7472182 136.28181092 179.89861361 142.89950442 173.9375 149.4375 C173.08542969 150.39398437 172.23335937 151.35046875 171.35546875 152.3359375 C152.61182172 173.28491875 129.86396317 190.4794983 104.9375 203.4375 C103.76840088 204.04658203 103.76840088 204.04658203 102.57568359 204.66796875 C82.45428366 215.0090717 61.13165899 222.09543894 38.9375 226.4375 C38.1017041 226.60121094 37.2659082 226.76492188 36.40478516 226.93359375 C-19.15460968 237.26625354 -78.65741059 222.40315837 -125.3125 191.25 C-127.59104782 189.68326298 -129.83417898 188.07472955 -132.0625 186.4375 C-132.60729004 186.03998535 -133.15208008 185.6424707 -133.71337891 185.23291016 C-137.57307158 182.3943969 -141.33755189 179.45014336 -145.0625 176.4375 C-145.59633301 176.00808105 -146.13016602 175.57866211 -146.68017578 175.13623047 C-161.51112565 163.10240394 -175.33799533 149.51843149 -187.0625 134.4375 C-187.9509947 133.37103773 -188.844521 132.30875373 -189.7421875 131.25 C-190.20101318 130.70851318 -190.65983887 130.16702637 -191.13256836 129.60913086 C-192.41980251 128.09437273 -193.70791891 126.58036447 -194.99609375 125.06640625 C-198.33412829 120.81971959 -199.83381288 117.45969381 -199.68359375 112.04296875 C-198.29876664 106.23366256 -193.86095218 101.88084846 -190.0625 97.4375 C-189.07780062 96.2619904 -188.09343339 95.0862025 -187.109375 93.91015625 C-184.13523952 90.38250378 -181.10811074 86.90348489 -178.0625 83.4375 C-177.26585937 82.52742188 -176.46921875 81.61734375 -175.6484375 80.6796875 C-143.71486995 44.68389934 -101.07865495 17.54828289 -54.0625 6.4375 C-52.92409668 6.16365479 -52.92409668 6.16365479 -51.76269531 5.88427734 C-46.54730794 4.64060805 -41.32789285 3.45017941 -36.0625 2.4375 C-35.1964917 2.25872314 -34.3304834 2.07994629 -33.43823242 1.89575195 C-22.37052079 -0.12720247 -11.21678927 -0.00237873 0 0 Z " fill="#000000" transform="translate(1680.0625,396.5625)"/>
<path d="M0 0 C1.83883366 -0.00270075 3.67766593 -0.006588 5.51649475 -0.01159668 C9.35513007 -0.0174658 13.19339094 -0.00901379 17.03198242 0.00976562 C21.92172333 0.03253745 26.81058491 0.01942682 31.70029354 -0.00452423 C35.49331636 -0.01906638 39.28613511 -0.01433764 43.07916451 -0.00401306 C44.88066274 -0.00136812 46.68218026 -0.00453577 48.48365593 -0.01393127 C63.92391225 -0.07680093 75.99030813 1.91053235 87.97265625 12.53125 C100.56700704 25.8193574 100.97265625 39.65879404 100.97265625 57.53125 C131.66265625 57.53125 162.35265625 57.53125 193.97265625 57.53125 C193.97265625 67.10125 193.97265625 76.67125 193.97265625 86.53125 C184.07265625 86.53125 174.17265625 86.53125 163.97265625 86.53125 C163.69421875 89.9653125 163.41578125 93.399375 163.12890625 96.9375 C162.14025267 108.91275222 161.00044098 120.86997301 159.79541016 132.82519531 C159.46999838 136.05765176 159.14888605 139.29051659 158.828125 142.5234375 C157.81148471 152.70231007 156.72715085 162.86169439 155.41943359 173.00732422 C154.70897653 178.61100579 154.11408271 184.22516328 153.53515625 189.84375 C153.40592773 191.08987061 153.27669922 192.33599121 153.14355469 193.61987305 C152.35736525 201.34260613 151.67037372 209.06881263 151.04833984 216.80664062 C149.35986814 237.77519247 147.05305993 258.67185989 144.71364021 279.57585049 C144.4871231 281.60061987 144.26119675 283.62545425 144.03549194 285.65031433 C143.74325673 288.27202253 143.44999895 290.89361696 143.15567017 293.51509094 C142.50908315 299.34618674 141.89808504 305.17360193 141.41845703 311.02099609 C141.33644547 312.01475754 141.2544339 313.00851898 141.16993713 314.03239441 C141.02714926 315.82694723 140.89355609 317.62227348 140.77232361 319.41841125 C140.0338559 328.82259444 137.51454576 336.8655226 131.97265625 344.53125 C130.85890625 346.078125 130.85890625 346.078125 129.72265625 347.65625 C121.88987599 355.84506572 112.05449269 360.21069775 100.72949505 360.65988445 C99.55207147 360.6615603 98.37464788 360.66323614 97.1615448 360.66496277 C96.50123286 360.66722833 95.84092092 360.66949388 95.16059953 360.67182809 C92.96145906 360.67812735 90.76238088 360.67734136 88.56323242 360.67651367 C86.98091045 360.67950772 85.39858921 360.68291081 83.81626892 360.68669128 C79.52689661 360.69551075 75.23754425 360.69786854 70.94816375 360.69850707 C68.26555853 360.69921877 65.58295835 360.70135536 62.90035439 360.70400429 C53.53374536 360.71325109 44.16715055 360.71734003 34.80053711 360.71655273 C26.0823297 360.7159522 17.36418421 360.72650097 8.64599246 360.7422964 C1.1502485 360.75539098 -6.34547527 360.76073582 -13.84123057 360.76009732 C-18.31331765 360.75984289 -22.78534967 360.76266387 -27.25742531 360.77327538 C-31.46568504 360.7829886 -35.67383745 360.7830135 -39.88210106 360.77575874 C-41.42154472 360.77471689 -42.96099518 360.77705197 -44.50042725 360.7831192 C-59.06315632 360.8367704 -71.17803953 359.13080348 -82.33984375 348.90625 C-93.84085289 336.53144756 -94.3807 320.5123671 -95.90234375 304.59375 C-96.07370168 302.84176218 -96.2454213 301.08980971 -96.41748047 299.33789062 C-97.34335681 289.86215999 -98.23081629 280.38292499 -99.10546875 270.90234375 C-99.19365875 269.94771744 -99.28184875 268.99309113 -99.37271118 268.00953674 C-99.79732688 263.40659386 -100.21833966 258.8033744 -100.63232422 254.19946289 C-101.43745683 245.32319501 -102.38404089 236.49433316 -103.52734375 227.65478516 C-104.43096311 220.42956245 -105.04906223 213.17216231 -105.71582031 205.92208862 C-106.8822901 193.25917275 -108.07435696 180.60250027 -109.52734375 167.96875 C-112.62537645 140.87703255 -115.16193662 113.73510393 -117.02734375 86.53125 C-127.25734375 86.53125 -137.48734375 86.53125 -148.02734375 86.53125 C-148.02734375 76.96125 -148.02734375 67.39125 -148.02734375 57.53125 C-117.00734375 57.53125 -85.98734375 57.53125 -54.02734375 57.53125 C-54.02734375 50.93125 -54.02734375 44.33125 -54.02734375 37.53125 C-51.22396762 23.8800271 -44.45273043 14.40105369 -33.19140625 6.25 C-22.14675664 0.25043725 -12.27445576 -0.06393342 0 0 Z M-90.02734375 85.53125 C-87.74717133 108.33297423 -85.45782023 131.11484442 -82.95703125 153.890625 C-82.31814814 159.76234047 -81.70877671 165.63597778 -81.12524414 171.51342773 C-80.94827066 173.28944172 -80.77126734 175.06545273 -80.59423828 176.84146118 C-80.50174301 177.77031254 -80.40924774 178.69916389 -80.31394958 179.65616226 C-79.82376604 184.57344076 -79.33081957 189.4904423 -78.83813477 194.4074707 C-78.62560287 196.52940243 -78.41308384 198.65133544 -78.20057678 200.77326965 C-78.09162645 201.86115091 -77.98267612 202.94903217 -77.87042427 204.06987953 C-77.15197181 211.24467933 -76.43391163 218.41951839 -75.71585178 225.59435749 C-74.96844328 233.06221347 -74.22065618 240.53003138 -73.47242165 247.99780464 C-73.22729385 250.44561125 -72.98238753 252.89344005 -72.73770714 255.34129143 C-72.14266876 261.29416012 -71.54513204 267.24675116 -70.94155884 273.19876099 C-69.94922257 283.01850864 -68.9749025 292.83484988 -68.18701172 302.67333984 C-68.0647772 304.14001669 -67.94222906 305.60666744 -67.81932068 307.07328796 C-67.60560072 309.62538813 -67.41936539 312.17409744 -67.25013733 314.73005676 C-66.68692762 321.50561545 -65.72476853 325.50165357 -61.02734375 330.53125 C-57.57326926 332.8128314 -54.58728051 332.78478325 -50.50575256 332.79194641 C-49.85249432 332.79577196 -49.19923607 332.79959751 -48.52618212 332.80353898 C-46.33906865 332.81385084 -44.15221861 332.80988037 -41.96508789 332.8059082 C-40.39627337 332.81025568 -38.82746097 332.81543895 -37.25865173 332.82139587 C-32.99833427 332.83479312 -28.73810547 332.83536375 -24.47777104 332.83283257 C-20.92152963 332.83176338 -17.36530619 332.83664491 -13.80906862 332.841438 C-5.41965513 332.85253564 2.96971358 332.85296911 11.35913086 332.84692383 C20.01492958 332.84088253 28.67056581 332.8531984 37.3263368 332.8744939 C44.75744251 332.89210439 52.18849648 332.89811214 59.61962229 332.89485615 C64.05809958 332.8930423 68.49646095 332.89568962 72.93491936 332.90957069 C77.10871885 332.92213549 81.28226486 332.92021781 85.45606041 332.90715981 C86.98750646 332.90479154 88.51897028 332.90753768 90.05039597 332.91578293 C92.14191921 332.92623142 94.23258888 332.91816607 96.32408142 332.9054718 C97.4941722 332.90563954 98.66426298 332.90580729 99.86981106 332.90598011 C104.57829134 332.33733771 107.0953625 330.50602083 110.22265625 327.03125 C112.71756244 323.4670983 113.16954814 320.43063913 113.58935547 316.19067383 C113.69983719 315.09172287 113.81031891 313.99277191 113.92414856 312.86051941 C114.04070297 311.66518082 114.15725739 310.46984222 114.27734375 309.23828125 C114.40094772 307.99762405 114.5245517 306.75696686 114.65190125 305.47871399 C114.98491659 302.12795343 115.31479116 298.77691279 115.64317703 295.42569733 C115.91637918 292.64403335 116.19237233 289.86264929 116.4684 287.0812645 C117.98938139 271.7521945 119.46341743 256.41968735 120.86108398 241.07885742 C122.00432069 228.76739496 123.37988802 216.48205974 124.73754883 204.19274902 C126.29143294 190.1074104 127.72425503 176.01621846 129.03515625 161.90625 C130.39840828 147.23579721 131.90234987 132.58879698 133.57836914 117.95068359 C134.81191102 107.15022389 135.89056678 96.3521447 136.97265625 85.53125 C62.06265625 85.53125 -12.84734375 85.53125 -90.02734375 85.53125 Z " fill="#030303" transform="translate(1657.02734375,854.46875)"/>
<path d="M0 0 C0.72026367 0.10763672 1.44052734 0.21527344 2.18261719 0.32617188 C35.26383475 5.41558996 67.03812323 22.9815042 91 46 C91.49032715 46.45922852 91.9806543 46.91845703 92.48583984 47.39160156 C105.75287767 59.84703763 116.23078084 74.08258856 125 90 C125.51771973 90.93465088 125.51771973 90.93465088 126.04589844 91.88818359 C134.95969029 108.21339581 140.72010095 125.71634736 144 144 C144.26707764 145.42082886 144.26707764 145.42082886 144.53955078 146.87036133 C146.03992973 155.53115571 146.31758145 164.04939621 146.25 172.8125 C146.24723053 173.51721436 146.24446106 174.22192871 146.24160767 174.94799805 C146.1948035 185.10147886 145.80772987 194.97739644 144 205 C143.72542969 206.87945313 143.72542969 206.87945313 143.4453125 208.796875 C139.44417392 234.86263919 127.16940888 261.31301317 111 282 C110.34547852 282.84062988 110.34547852 282.84062988 109.67773438 283.69824219 C80.03935895 321.21823004 36.7695751 346.09402709 -10.89465332 351.79850769 C-14.27924028 352.12242976 -17.66154575 352.1822874 -21.05859375 352.203125 C-21.80601334 352.20882507 -22.55343292 352.21452515 -23.32350159 352.22039795 C-24.89916601 352.2297838 -26.4748495 352.23635616 -28.05053711 352.24023438 C-30.40060082 352.24984904 -32.74975341 352.28089534 -35.09960938 352.3125 C-48.98516662 352.40993963 -62.15425507 350.32806777 -75.5625 346.6875 C-76.35221191 346.47367676 -77.14192383 346.25985352 -77.95556641 346.03955078 C-116.40751216 335.34343813 -149.18197921 311.80219799 -173 280 C-173.63808594 279.15695312 -174.27617188 278.31390625 -174.93359375 277.4453125 C-201.84940548 240.52154306 -212.39710212 193.45352397 -205.87280273 148.34716797 C-197.83748564 100.37171419 -171.52859282 58.18969592 -132.17089844 29.67480469 C-113.16057824 16.12780163 -91.04455355 5.82763452 -68.06689453 1.40576172 C-66.03347312 1.00657126 -64.01706404 0.55524372 -61.99609375 0.09765625 C-42.01867304 -4.12205942 -20.0883783 -3.31179105 0 0 Z M-64 32 C-65.24523438 32.2784375 -66.49046875 32.556875 -67.7734375 32.84375 C-77.37969286 35.1413286 -86.14412006 38.71138557 -95 43 C-95.97549805 43.47228027 -95.97549805 43.47228027 -96.97070312 43.95410156 C-110.1555721 50.44095152 -121.33537716 58.88613233 -132 69 C-133.34384766 70.26457031 -133.34384766 70.26457031 -134.71484375 71.5546875 C-153.26260796 89.50413674 -165.94571425 112.19488811 -173 137 C-173.19899902 137.67192383 -173.39799805 138.34384766 -173.60302734 139.03613281 C-179.97732613 161.45319997 -179.89541694 189.73963389 -173 212 C-172.76394043 212.82387207 -172.52788086 213.64774414 -172.28466797 214.49658203 C-165.1885444 239.16144482 -152.71664299 259.62208262 -135 278 C-134.11248047 278.96486328 -134.11248047 278.96486328 -133.20703125 279.94921875 C-116.31311737 297.84425345 -91.74730014 311.29843376 -68 317 C-66.85273437 317.28617188 -65.70546875 317.57234375 -64.5234375 317.8671875 C-40.38661147 323.69331792 -12.74270249 323.36300929 11 316 C11.82306641 315.74831055 12.64613281 315.49662109 13.49414062 315.23730469 C35.52235703 308.28240713 54.27107202 296.86055615 71 281 C71.95777344 280.10667969 72.91554688 279.21335937 73.90234375 278.29296875 C95.03649902 258.18490938 107.92470309 232.33219034 114 204 C114.17732666 203.32791504 114.35465332 202.65583008 114.53735352 201.96337891 C116.46041314 194.01267844 116.3370668 186.02007352 116.31567383 177.88916016 C116.31253271 175.40091305 116.3359695 172.91388054 116.36132812 170.42578125 C116.41806803 156.42909766 114.55943685 143.26405779 110.0625 129.9375 C109.62623291 128.64211304 109.62623291 128.64211304 109.18115234 127.32055664 C103.6588269 111.73721837 95.69733707 96.63903859 85 84 C84.08852209 82.86694735 83.17844264 81.73276874 82.26953125 80.59765625 C62.20842961 55.94251189 34.59938209 39.99048532 4 32 C2.75605469 31.66097656 1.51210937 31.32195312 0.23046875 30.97265625 C-19.7012029 26.51830739 -44.26635903 26.92438503 -64 32 Z " fill="#000000" transform="translate(1168,336)"/>
<path d="M0 0 C1.7648877 0.00966797 1.7648877 0.00966797 3.56542969 0.01953125 C13.32225209 0.22296568 21.80306524 1.60539745 30.75 5.5 C31.39324219 5.77875977 32.03648438 6.05751953 32.69921875 6.34472656 C55.31858124 16.53698421 70.00853109 35.3300044 78.7421875 58.171875 C85.01580267 78.88939485 82.63038384 100.40698398 73.5625 119.875 C62.33582704 140.78743003 44.77046251 155.46248677 22.1875 162.9375 C0.69044949 168.14822263 -22.62596079 165.77437001 -41.734375 154.7109375 C-47.00943903 151.49366504 -51.68810608 147.65404248 -56.25 143.5 C-56.90484375 142.91476562 -57.5596875 142.32953125 -58.234375 141.7265625 C-74.12757639 126.74757181 -81.76937266 105.16475388 -82.63793945 83.77880859 C-83.09632051 61.54619838 -74.55585513 40.61279647 -59.25 24.5 C-52.125179 17.09648702 -44.28229103 12.1865661 -35.25 7.5 C-34.0434375 6.86578125 -34.0434375 6.86578125 -32.8125 6.21875 C-22.51646251 1.22214357 -11.31326391 -0.06556513 0 0 Z " fill="#FFFFFF" transform="translate(1680.25,428.5)"/>
<path d="M0 0 C2.38005654 3.94668441 3.04482273 8.25207949 3.953125 12.70703125 C4.22419067 14.0043367 4.22419067 14.0043367 4.50073242 15.32785034 C5.08957033 18.15490849 5.6700114 20.98361423 6.25 23.8125 C6.65567158 25.77129263 7.06159788 27.73003252 7.46777344 29.6887207 C10.06562271 42.25738331 12.56396203 54.84297406 14.96728516 67.45019531 C16.44085369 75.17223139 17.99588304 82.87184312 19.625 90.5625 C21.97703142 101.66863639 24.0321465 112.82005378 26 124 C18.28137781 122.66453192 10.6517974 121.06557343 3.015625 119.32421875 C-12.930415 115.73675699 -28.94335349 112.49996685 -44.96539307 109.27301025 C-48.80155003 108.49975268 -52.63706396 107.72331836 -56.47265625 106.94726562 C-69.64546144 104.28327126 -82.82076447 101.63200541 -96 99 C-96 92.02276546 -85.98848182 84.94633945 -81.19750977 80.13378906 C-78.66789479 77.60571036 -76.13158016 75.08466141 -73.58349609 72.57519531 C-72.25852371 71.25716851 -70.9633188 69.90930684 -69.67578125 68.5546875 C-68 67 -68 67 -66 67 C-65.73445313 66.41734375 -65.46890625 65.8346875 -65.1953125 65.234375 C-63.96697004 62.93825772 -62.59685061 61.19643982 -60.875 59.25 C-60.33617187 58.63640625 -59.79734375 58.0228125 -59.2421875 57.390625 C-58.83226562 56.93171875 -58.42234375 56.4728125 -58 56 C-69.62062238 48.12161195 -81.78716483 41.93600225 -95 37.1875 C-95.75724365 36.90970703 -96.5144873 36.63191406 -97.29467773 36.34570312 C-110.63682282 31.74968709 -123.9322076 30.47135544 -137.9375 30.625 C-138.67979858 30.62898804 -139.42209717 30.63297607 -140.18688965 30.63708496 C-151.05757849 30.70550556 -161.43709271 31.22783429 -172 34 C-173.16015625 34.2784375 -174.3203125 34.556875 -175.515625 34.84375 C-199.93568107 41.19515472 -220.71085916 53.71219699 -239 71 C-239.81082031 71.74636719 -240.62164063 72.49273438 -241.45703125 73.26171875 C-263.87539724 94.62094934 -281.10624081 128.23388131 -282.11352539 159.52685547 C-282.10567017 161.42781982 -282.10567017 161.42781982 -282.09765625 163.3671875 C-282.09553383 164.38656906 -282.09553383 164.38656906 -282.09336853 165.42654419 C-282.08781518 167.57607612 -282.07527169 169.72550008 -282.0625 171.875 C-282.05747896 173.34114432 -282.05291711 174.80729029 -282.04882812 176.2734375 C-282.03786111 179.84899283 -282.02062919 183.42448586 -282 187 C-286.08206348 187.83963669 -290.1658422 188.67061559 -294.25 189.5 C-295.40886719 189.73847656 -296.56773437 189.97695312 -297.76171875 190.22265625 C-299.43427734 190.56103516 -299.43427734 190.56103516 -301.140625 190.90625 C-302.16704102 191.11572266 -303.19345703 191.32519531 -304.25097656 191.54101562 C-307 192 -307 192 -311 192 C-311.07549162 187.04194276 -311.12921778 182.08423701 -311.16479492 177.12573242 C-311.17966256 175.44728757 -311.19996277 173.76887995 -311.22631836 172.09057617 C-311.40551577 160.36544362 -310.45934299 149.46811632 -308 138 C-307.77731445 136.94264648 -307.55462891 135.88529297 -307.32519531 134.79589844 C-300.59557693 104.27839303 -284.74883589 76.25315672 -263 54 C-262.15179687 53.08992187 -261.30359375 52.17984375 -260.4296875 51.2421875 C-236.85168628 26.53807279 -204.22739531 10.58941443 -171 4 C-170.19312744 3.82194824 -169.38625488 3.64389648 -168.55493164 3.46044922 C-159.36937106 1.64073739 -150.2044591 1.62777302 -140.87670898 1.62939453 C-138.09880558 1.62505669 -135.32254208 1.58873294 -132.54492188 1.55078125 C-101.04953647 1.35162659 -69.30867908 11.49977409 -43.6159668 29.86450195 C-39.65699115 32.86687165 -39.65699115 32.86687165 -35 34 C-32.40530428 32.08616328 -32.40530428 32.08616328 -29.859375 29.3125 C-29.37349915 28.81717773 -28.88762329 28.32185547 -28.38702393 27.81152344 C-26.82916516 26.21903172 -25.28922999 24.61048618 -23.75 23 C-21.72870286 20.91203146 -19.7007381 18.83061433 -17.671875 16.75 C-16.93843872 15.99433495 -16.93843872 15.99433495 -16.19018555 15.22340393 C-12.79736464 11.74874431 -9.28990709 8.48026104 -5.58105469 5.34741211 C-3.61148924 3.66890197 -1.79146091 1.86610511 0 0 Z " fill="#000000" transform="translate(1277,868)"/>
<path d="M0 0 C0.89258277 50.54764887 -9.81826955 95.42114575 -45.421875 133.2109375 C-47.1608993 135.09224561 -48.83440021 137.03599129 -50.44140625 139.03125 C-53.10855453 142.1259564 -55.96432503 144.64717841 -59.1875 147.125 C-59.78771973 147.58946533 -60.38793945 148.05393066 -61.00634766 148.5324707 C-99.75884422 178.08235838 -144.89522236 192.55703753 -193.78417969 187.61767578 C-220.78273998 183.83576158 -251.00445484 174.02643686 -272.19921875 156.14453125 C-273.92121575 154.77854872 -273.92121575 154.77854872 -275.92797852 155.26000977 C-279.45946698 156.52122593 -281.7183416 159.46117846 -284.25 162.125 C-285.41996017 163.327387 -286.59182333 164.52792539 -287.765625 165.7265625 C-288.32701172 166.30051758 -288.88839844 166.87447266 -289.46679688 167.46582031 C-291.23796826 169.23811983 -293.08348443 170.88652322 -295 172.5 C-299.48788062 176.28484353 -303.5356432 180.51384205 -307.609375 184.734375 C-309.03678506 186.19251877 -310.51465634 187.60091568 -312 189 C-312.66 189 -313.32 189 -314 189 C-314.1959375 187.95972656 -314.391875 186.91945313 -314.59375 185.84765625 C-321.49167367 148.99717667 -321.49167367 148.99717667 -329.19799805 112.3112793 C-331.0291876 104.04878421 -332.64726777 95.74663556 -334.25 87.4375 C-334.38110168 86.75870789 -334.51220337 86.07991577 -334.64727783 85.3805542 C-335.82685454 79.26281591 -336.99606973 73.14936272 -338 67 C-330.25958525 67.55234419 -322.8745006 68.9870985 -315.3125 70.6875 C-300.70012729 73.89161235 -286.03358211 76.7606917 -271.33850098 79.55480957 C-267.86626302 80.21583436 -264.39459718 80.87984515 -260.92288208 81.54360962 C-238.47846863 85.86316274 -238.47846863 85.86316274 -216 90 C-216 93 -216 93 -217.43589783 94.78993225 C-218.10794754 95.45230392 -218.77999725 96.1146756 -219.47241211 96.79711914 C-220.22997299 97.55122574 -220.98753387 98.30533234 -221.76805115 99.08229065 C-222.59611771 99.8917363 -223.42418427 100.70118195 -224.27734375 101.53515625 C-225.11842178 102.36961777 -225.95949982 103.20407928 -226.82606506 104.06382751 C-229.52291241 106.73719969 -232.22968413 109.400242 -234.9375 112.0625 C-237.64001639 114.73000908 -240.34041508 117.39961354 -243.03822327 120.07188416 C-244.72001918 121.73664316 -246.4048791 123.39831333 -248.09300232 125.05665588 C-249.23407188 126.18308754 -249.23407188 126.18308754 -250.39819336 127.33227539 C-251.40746132 128.32463951 -251.40746132 128.32463951 -252.43711853 129.33705139 C-254.08512777 130.93137124 -254.08512777 130.93137124 -255 133 C-254.27296875 133.26554687 -253.5459375 133.53109375 -252.796875 133.8046875 C-249.99837861 135.00069294 -247.7570688 136.40837646 -245.25 138.125 C-223.12255758 152.40076931 -198.5694356 158.64939289 -172.4375 158.5 C-171.60850189 158.49823761 -170.77950378 158.49647522 -169.92538452 158.49465942 C-156.11621757 158.42945219 -143.23366538 157.19323297 -130 153 C-129.17064941 152.74299316 -128.34129883 152.48598633 -127.48681641 152.22119141 C-92.15795464 140.9742272 -61.97422079 117.06187796 -44.75927734 84.00805664 C-43.09916523 80.70510016 -41.53722193 77.36156134 -40 74 C-39.45472656 72.83339844 -38.90945313 71.66679688 -38.34765625 70.46484375 C-29.03095118 49.05775806 -28.11117936 26.97052806 -28 4 C-22.40978461 2.85799585 -16.82684511 1.7511498 -11.1875 0.875 C-10.12917969 0.70742188 -9.07085938 0.53984375 -7.98046875 0.3671875 C-5.27521894 0.0339064 -2.71993092 -0.02697832 0 0 Z " fill="#000000" transform="translate(1309,1020)"/>
<path d="M0 0 C0.71220703 -0.020625 1.42441406 -0.04125 2.15820312 -0.0625 C6.7100022 -0.09618584 9.59614192 0.40877771 13.1875 3.25 C15.70920416 7.03255624 15.45470692 10.01485768 15.41455078 14.39331055 C15.41484283 15.22280212 15.41513489 16.0522937 15.41543579 16.90692139 C15.41404179 19.65029337 15.39847732 22.39339418 15.3828125 25.13671875 C15.37908262 27.03815055 15.37623553 28.93958427 15.37423706 30.84101868 C15.36659865 35.84698793 15.34694834 40.85284123 15.3248291 45.85876465 C15.30437517 50.96637402 15.29523631 56.07400211 15.28515625 61.18164062 C15.26370268 71.20447804 15.22956419 81.22722938 15.1875 91.25 C16.21400665 91.24333817 17.24051331 91.23667633 18.29812622 91.22981262 C27.97944628 91.16895582 37.66072745 91.1240054 47.34219551 91.09456348 C52.31935737 91.07891817 57.29636462 91.05770051 62.2734375 91.02368164 C67.07801709 90.99104789 71.88244809 90.97313845 76.68712997 90.96536827 C78.51872979 90.95983199 80.35032162 90.94902093 82.18185806 90.93280983 C84.75048546 90.91098211 87.31850157 90.9080353 89.88720703 90.90942383 C90.64174667 90.898638 91.39628632 90.88785217 92.1736908 90.8767395 C96.91196803 90.90439304 100.17234452 91.71861627 104.1875 94.25 C106.00454899 97.88409798 105.45790718 102.12337548 105.5 106.125 C105.52900391 107.03636719 105.55800781 107.94773437 105.58789062 108.88671875 C105.65176689 115.59864048 105.65176689 115.59864048 103.35546875 118.8203125 C99.12171291 121.61230284 95.11008549 121.38646102 90.2277832 121.36352539 C89.01280655 121.36374443 89.01280655 121.36374443 87.77328491 121.3639679 C85.09492315 121.363271 82.41663087 121.35548903 79.73828125 121.34765625 C77.88168882 121.34579128 76.0250959 121.34436775 74.16850281 121.34336853 C69.28094119 121.3395496 64.39340926 121.32972461 59.50585938 121.31866455 C54.51888429 121.30843704 49.53190442 121.30386803 44.54492188 121.29882812 C34.75910153 121.28810181 24.97330324 121.27103284 15.1875 121.25 C15.19749275 122.81188301 15.19749275 122.81188301 15.20768738 124.40531921 C15.26850924 134.21939669 15.31347783 144.03343591 15.34293652 153.84765911 C15.35859068 158.89322962 15.37982451 163.93864794 15.41381836 168.98413086 C15.44642053 173.85354419 15.46435489 178.72281116 15.47213173 183.59232521 C15.47767368 185.44987098 15.48849576 187.30740876 15.50469017 189.1648922 C15.52647586 191.76724925 15.52946645 194.36900193 15.52807617 196.97143555 C15.538862 197.7389212 15.54964783 198.50640686 15.5607605 199.29714966 C15.5347453 203.79911338 15.00127391 206.69086473 12.1875 210.25 C8.37784402 212.78977065 5.22914491 212.61753945 0.8125 212.625 C0.05710937 212.64949219 -0.69828125 212.67398438 -1.4765625 212.69921875 C-5.39889578 212.71979043 -7.3718265 212.52180649 -10.7890625 210.4140625 C-14.4742936 206.47271495 -13.94963718 202.28613345 -13.92602539 197.19848633 C-13.92617142 196.37874832 -13.92631744 195.55901031 -13.9264679 194.71443176 C-13.92577096 192.00360472 -13.91798878 189.2928463 -13.91015625 186.58203125 C-13.90829129 184.70301857 -13.90686776 182.8240054 -13.90586853 180.94499207 C-13.90204948 175.99824685 -13.89222438 171.05153098 -13.88116455 166.10479736 C-13.8709373 161.05749915 -13.86636809 156.01019621 -13.86132812 150.96289062 C-13.85060159 141.05858086 -13.83353248 131.15429287 -13.8125 121.25 C-15.37438301 121.26332367 -15.37438301 121.26332367 -16.96781921 121.2769165 C-26.78186882 121.35801209 -36.59585043 121.4179701 -46.41015911 121.45724869 C-51.45579178 121.47812116 -56.5011539 121.50643274 -61.54663086 121.55175781 C-66.41605602 121.59522748 -71.28522099 121.61913967 -76.15482521 121.62950897 C-78.0123892 121.63689832 -79.869939 121.65132803 -81.7273922 121.67292023 C-84.32988604 121.70196935 -86.93130559 121.70595541 -89.53393555 121.70410156 C-90.3014212 121.71848267 -91.06890686 121.73286377 -91.85964966 121.74768066 C-95.56198436 121.71915475 -97.62366632 121.37163568 -100.76741028 119.34661865 C-104.70194919 115.31294346 -104.134096 111.31304758 -104.25 105.9375 C-104.29576172 105.08220703 -104.34152344 104.22691406 -104.38867188 103.34570312 C-104.40349609 102.51361328 -104.41832031 101.68152344 -104.43359375 100.82421875 C-104.4586499 100.06713623 -104.48370605 99.31005371 -104.50952148 98.5300293 C-103.42457989 94.98107324 -100.91649609 93.06936752 -97.8125 91.25 C-94.81370807 90.78890932 -92.40350784 90.6121728 -89.42041016 90.68237305 C-88.19014603 90.68127785 -88.19014603 90.68127785 -86.93502808 90.68016052 C-84.23985299 90.68362776 -81.54643344 90.72244603 -78.8515625 90.76171875 C-76.97684676 90.77105 -75.10211879 90.77816464 -73.22738647 90.78315735 C-68.30501347 90.80220265 -63.38338396 90.85128213 -58.46130371 90.90667725 C-53.43394019 90.95792303 -48.40645595 90.98068276 -43.37890625 91.00585938 C-33.52311172 91.0594033 -23.66786781 91.14468618 -13.8125 91.25 C-13.82138245 90.19621658 -13.83026489 89.14243317 -13.8394165 88.05671692 C-13.92050955 78.12493736 -13.98046889 68.19322499 -14.01974869 58.26118946 C-14.04062179 53.15502434 -14.06893456 48.04912652 -14.11425781 42.94311523 C-14.15772517 38.0153357 -14.18163919 33.08781325 -14.19200897 28.1598568 C-14.19939873 26.2799646 -14.21382923 24.40008645 -14.23542023 22.52030373 C-14.2644662 19.88668052 -14.26845553 17.25411899 -14.26660156 14.62036133 C-14.28098267 13.84352493 -14.29536377 13.06668854 -14.31018066 12.26631165 C-14.28183209 8.54361408 -13.94250009 6.45221091 -11.90911865 3.28935242 C-8.22198806 -0.29706931 -4.90390048 0.03493429 0 0 Z " fill="#000000" transform="translate(1136.8125,404.75)"/>
<path d="M0 0 C1.8203125 1.60546875 1.8203125 1.60546875 3 3 C2.41992188 3.20753906 1.83984375 3.41507812 1.2421875 3.62890625 C-4.65928244 5.95638367 -8.61799457 8.55439804 -12 14 C-15.03905123 21.73576677 -14.56283246 28.11092757 -11.3359375 35.62890625 C-8.30688604 41.00502974 -3.78834284 44.09053187 2 46 C8.94639906 46.91021781 14.66285975 46.66453592 20.38671875 42.41015625 C25.45887355 37.97662627 27.18151459 33.32336973 29 27 C29.66 27 30.32 27 31 27 C31.81898266 29.20611566 32.63027543 31.4145834 33.4375 33.625 C33.88996094 34.85476563 34.34242187 36.08453125 34.80859375 37.3515625 C39.26244365 50.99056513 37.09493425 65.08005289 31.71484375 78.11328125 C24.37461628 92.56882671 12.05362094 102.40403031 -3 108 C-18.45146909 111.56867937 -35.11553604 109.87690097 -48.75 101.8125 C-61.89909256 92.76653502 -70.50566362 80.24077305 -74.37109375 64.76171875 C-77.12661693 48.27992482 -74.53948705 33.44751574 -64.94140625 19.49609375 C-49.90915969 0.16891961 -23.54878268 -9.63359291 0 0 Z " fill="#000000" transform="translate(1699,458)"/>
<path d="M0 0 C3.44677 1.48343 5.67343301 3.43050188 8.30957031 6.08251953 C9.5704245 7.34360031 9.5704245 7.34360031 10.85675049 8.63015747 C11.75480408 9.53853363 12.65285767 10.44690979 13.578125 11.3828125 C14.5046991 12.31221649 15.43127319 13.24162048 16.38592529 14.19918823 C18.84315789 16.6640385 21.29432361 19.13483666 23.7442627 21.60693359 C26.24773809 24.13090765 28.75692063 26.64919388 31.265625 29.16796875 C36.18267525 34.10643597 41.09333788 39.051212 46 44 C48.98932164 42.65844369 51.05967051 41.18247123 53.35644531 38.85473633 C53.99100647 38.21679642 54.62556763 37.57885651 55.27935791 36.92158508 C55.95545105 36.23203232 56.63154419 35.54247955 57.328125 34.83203125 C58.0359613 34.11899338 58.74379761 33.40595551 59.4730835 32.67131042 C61.73685772 30.38973806 63.99385671 28.10161658 66.25 25.8125 C68.49266506 23.54206125 70.73682159 21.27315071 72.98406982 19.00724792 C74.38052401 17.59870969 75.77429967 16.18750874 77.16485596 14.77314758 C81.10006446 10.79822693 85.14954338 7.05493524 89.4286499 3.45121765 C91.11435167 2.06600843 91.11435167 2.06600843 92 0 C96.62723596 2.0856395 99.64760553 5.31698938 103.1875 8.875 C103.82880859 9.50019531 104.47011719 10.12539063 105.13085938 10.76953125 C105.74123047 11.37925781 106.35160156 11.98898437 106.98046875 12.6171875 C107.53629639 13.17003418 108.09212402 13.72288086 108.66479492 14.29248047 C110.20208501 16.25843528 110.80189477 17.50914062 111 20 C110.07324219 21.58618164 110.07324219 21.58618164 108.546875 23.16015625 C107.95970703 23.77640869 107.37253906 24.39266113 106.76757812 25.02758789 C106.10177734 25.69910889 105.43597656 26.37062988 104.75 27.0625 C104.06357422 27.7733374 103.37714844 28.4841748 102.66992188 29.21655273 C100.13143892 31.82926511 97.56843319 34.41681781 95 37 C94.1802771 37.82588623 94.1802771 37.82588623 93.34399414 38.66845703 C84.92897443 47.14548092 76.47624105 55.5842238 68 64 C69.79532109 67.87949716 72.10067055 70.26961294 75.1875 73.25 C78.31845187 76.28023593 81.29216975 79.30534106 84.11328125 82.625 C87.15872609 86.15161258 90.40845653 89.42875006 93.75 92.671875 C94.25698929 93.16625061 94.76397858 93.66062622 95.28633118 94.16998291 C97.39496159 96.22445347 99.50501076 98.27691163 101.63330078 100.31103516 C103.20442994 101.81589191 104.75942679 103.33592082 106.3125 104.859375 C107.23675781 105.75108398 108.16101562 106.64279297 109.11328125 107.56152344 C111 110 111 110 111.0090332 112.07592773 C108.88287705 116.13018291 105.40098498 119.11026082 102.1875 122.3125 C101.46240234 123.06595703 100.73730469 123.81941406 99.99023438 124.59570312 C98.93352539 125.6562793 98.93352539 125.6562793 97.85546875 126.73828125 C97.21246826 127.38837158 96.56946777 128.03846191 95.90698242 128.70825195 C94 130 94 130 91.8996582 129.82495117 C89.31025519 128.70046939 87.81371135 127.13758838 86 125 C86 124.34 86 123.68 86 123 C85.34 123 84.68 123 84 123 C82.79858398 121.77734375 82.79858398 121.77734375 81.30859375 119.9375 C75.31879155 112.89323172 68.61679402 106.51229455 62.0625 100 C60.69703255 98.63955682 59.33179614 97.27888169 57.96679688 95.91796875 C54.64719114 92.6092969 51.32446727 89.30378678 48 86 C44.56069417 87.48126357 42.33045662 89.42427446 39.69921875 92.0703125 C38.88646484 92.885 38.07371094 93.6996875 37.23632812 94.5390625 C36.39521484 95.39242188 35.55410156 96.24578125 34.6875 97.125 C33.85798828 97.95515625 33.02847656 98.7853125 32.17382812 99.640625 C27.86680503 103.97824258 23.73434993 108.39789207 19.7487793 113.03076172 C16.5121939 116.67536563 13.02843405 120.07528931 9.5625 123.5 C8.83095703 124.22703125 8.09941406 124.9540625 7.34570312 125.703125 C5.56610176 127.47109499 3.78419082 129.23666378 2 131 C-2.70341126 127.07711742 -7.14273951 122.98981304 -11.4375 118.625 C-12.24864258 117.80708984 -12.24864258 117.80708984 -13.07617188 116.97265625 C-14.38646723 115.65076536 -15.69358284 114.32572382 -17 113 C-15.65840126 109.00295064 -14.00892637 106.65750085 -10.9934082 103.73217773 C-9.75751701 102.52083412 -9.75751701 102.52083412 -8.49665833 101.28501892 C-7.16219917 99.99731346 -7.16219917 99.99731346 -5.80078125 98.68359375 C-3.93399826 96.84986031 -2.06746938 95.01586817 -0.20117188 93.18164062 C2.74938478 90.29640181 5.70676067 87.41824023 8.66821289 84.54418945 C11.52471137 81.77031403 14.36161184 78.97679288 17.19921875 76.18359375 C18.09493088 75.32309921 18.99064301 74.46260468 19.91349792 73.57603455 C20.7279689 72.7716243 21.54243988 71.96721405 22.3815918 71.13842773 C23.10614059 70.43403061 23.83068939 69.72963348 24.57719421 69.00389099 C26.22509426 67.12476299 26.22509426 67.12476299 25.88093567 64.9122467 C24.42723101 61.75669059 21.86454256 59.60089975 19.375 57.25 C16.04715783 54.06538142 12.83986655 50.86501469 9.84765625 47.359375 C4.89042832 41.61437054 -0.55362988 36.33985576 -5.9375 31 C-7.01390654 29.92862113 -8.09008014 28.85700818 -9.16601562 27.78515625 C-11.77466745 25.18740362 -14.38644471 22.59282038 -17 20 C-15.57567584 17.02183282 -14.22096735 15.02068318 -11.8125 12.75 C-8.47591933 9.51834325 -5.41258922 6.12045116 -2.3828125 2.6015625 C-1.61429517 1.71147181 -0.83152881 0.83152881 0 0 Z " fill="#000000" transform="translate(1633,996)"/>
<path d="M0 0 C4.68163863 1.38030075 8.72255866 3.35345871 12.875 5.875 C13.51848389 6.26429688 14.16196777 6.65359375 14.82495117 7.0546875 C26.43874082 14.23182727 37.03178215 22.69406579 47 32 C48.68700218 33.47973441 50.3745097 34.95889288 52.0625 36.4375 C57.09684439 40.97781994 61.57895934 45.86752751 66 51 C66.71567139 51.82250244 66.71567139 51.82250244 67.44580078 52.66162109 C68.97007254 54.4149967 70.48637846 56.17492593 72 57.9375 C72.48138428 58.4934082 72.96276855 59.04931641 73.45874023 59.62207031 C75.54746277 62.07956821 76.96936897 63.90810691 78 67 C67.78670385 83.24032847 50.86821191 98.1356581 36 110 C34.90173181 110.90029568 33.80409326 111.80135991 32.70703125 112.703125 C22.28124447 121.18736358 11.18963864 128.27833288 -1 134 C0.435045 130.99744431 2.07473983 128.1449958 3.76660156 125.28076172 C7.80774374 118.40025493 11.21187532 111.49495882 14 104 C14.36996094 103.01257813 14.73992187 102.02515625 15.12109375 101.0078125 C19.29515248 89.23482633 20.39167241 77.76043521 20.375 65.3125 C20.37478851 64.65524933 20.37457703 63.99799866 20.37435913 63.3208313 C20.34016193 52.6459551 19.40866642 43.1034655 16 33 C15.62617187 31.86175781 15.25234375 30.72351563 14.8671875 29.55078125 C12.02986239 21.61190802 8.15627651 14.31780438 4 7 C3.33871094 5.82630859 3.33871094 5.82630859 2.6640625 4.62890625 C1.78550631 3.08052885 0.89479621 1.53904948 0 0 Z " fill="#FFFFFF" transform="translate(1767,445)"/>
<path d="M0 0 C0.99 0.495 0.99 0.495 2 1 C1.41992188 1.85980469 0.83984375 2.71960938 0.2421875 3.60546875 C-11.98578926 21.98679434 -19.17959324 41.04560352 -19.24023438 63.22509766 C-19.24981413 65.33408005 -19.28081183 67.44203239 -19.3125 69.55078125 C-19.41023706 81.94875022 -17.60939852 93.79870521 -13.3125 105.5 C-12.93665771 106.54365723 -12.93665771 106.54365723 -12.55322266 107.60839844 C-9.0336997 117.01508471 -4.50929349 126.30456858 2 134 C-20.46087572 125.318314 -38.97941029 108.13379512 -55.8125 91.4375 C-56.68422852 90.57519775 -57.55595703 89.71289551 -58.45410156 88.82446289 C-73.6103046 73.59181536 -73.6103046 73.59181536 -77 66 C-63.74186505 50.18936431 -50.41914469 34.63512988 -34 22 C-33.46068848 21.57895996 -32.92137695 21.15791992 -32.36572266 20.72412109 C-24.79370677 14.84050365 -16.96416351 9.59682166 -8.6875 4.75 C-7.85669922 4.25967285 -7.02589844 3.7693457 -6.16992188 3.26416016 C-5.00879883 2.599729 -5.00879883 2.599729 -3.82421875 1.921875 C-2.78914185 1.32777832 -2.78914185 1.32777832 -1.7331543 0.72167969 C-1.16121338 0.48352539 -0.58927246 0.24537109 0 0 Z " fill="#FFFFFF" transform="translate(1592,444)"/>
</svg>
